<mxfile host="65bd71144e" compressed="false">
    <diagram id="86R6ZRfhnQo9sD8B5-7s" name="Page-1">
        <mxGraphModel dx="1093" dy="1100" grid="1" gridSize="10" guides="1" tooltips="1" connect="1" arrows="1" fold="1" page="1" pageScale="1" pageWidth="827" pageHeight="1169" background="#161923" math="0" shadow="0">
            <root>
                <mxCell id="0"/>
                <mxCell id="1" parent="0"/>
                <mxCell id="Envj31jSL4E8aKWLNrxv-14" value="" style="endArrow=classic;html=1;rounded=0;fontSize=14;fontColor=#FFFFFF;entryX=0;entryY=0.25;entryDx=0;entryDy=0;strokeColor=#FFFFFF;strokeWidth=3;exitX=1;exitY=0.25;exitDx=0;exitDy=0;" parent="1" target="Envj31jSL4E8aKWLNrxv-3" edge="1">
                    <mxGeometry width="50" height="50" relative="1" as="geometry">
                        <mxPoint x="280" y="459.9999999999998" as="sourcePoint"/>
                        <mxPoint x="360" y="460" as="targetPoint"/>
                    </mxGeometry>
                </mxCell>
                <mxCell id="Envj31jSL4E8aKWLNrxv-24" value="&lt;i style=&quot;font-size: 14px;&quot;&gt;TIME_CNT&lt;/i&gt;" style="text;html=1;strokeColor=none;fillColor=none;align=right;verticalAlign=middle;whiteSpace=wrap;rounded=0;labelBackgroundColor=none;fontSize=14;fontColor=#FFFFFF;" parent="1" vertex="1">
                    <mxGeometry x="80" y="130" width="90" height="40" as="geometry"/>
                </mxCell>
                <mxCell id="4" value="" style="rounded=0;whiteSpace=wrap;html=1;labelBackgroundColor=none;fontSize=14;fontColor=#333333;strokeColor=#FFFFFF;strokeWidth=2;fillColor=none;dashed=1;" vertex="1" parent="1">
                    <mxGeometry x="210" y="130" width="600" height="340" as="geometry"/>
                </mxCell>
                <mxCell id="38" value="Buffer" style="rounded=0;whiteSpace=wrap;html=1;fontFamily=Helvetica;fontSize=14;fontColor=#333333;strokeColor=none;strokeWidth=3;fillColor=#f5f5f5;" vertex="1" parent="1">
                    <mxGeometry x="450" y="240" width="120" height="40" as="geometry"/>
                </mxCell>
                <mxCell id="53" value="Preconditioner" style="rounded=0;whiteSpace=wrap;html=1;fontFamily=Helvetica;fontSize=14;fontColor=#333333;strokeColor=none;strokeWidth=3;fillColor=#f5f5f5;" vertex="1" parent="1">
                    <mxGeometry x="250" y="210" width="120" height="200" as="geometry"/>
                </mxCell>
                <mxCell id="54" value="generator" style="rounded=0;whiteSpace=wrap;html=1;fontFamily=Helvetica;fontSize=14;fontColor=#333333;strokeColor=none;strokeWidth=3;fillColor=#f5f5f5;" vertex="1" parent="1">
                    <mxGeometry x="650" y="240" width="120" height="40" as="geometry"/>
                </mxCell>
                <mxCell id="55" style="edgeStyle=none;rounded=0;html=1;exitX=1;exitY=0.5;exitDx=0;exitDy=0;entryX=0;entryY=0.5;entryDx=0;entryDy=0;fontColor=#333333;strokeColor=#FFFFFF;strokeWidth=2;" edge="1" parent="1" source="54" target="57">
                    <mxGeometry relative="1" as="geometry">
                        <mxPoint x="810" y="260" as="sourcePoint"/>
                        <mxPoint x="890" y="260" as="targetPoint"/>
                    </mxGeometry>
                </mxCell>
                <mxCell id="57" value="&lt;i style=&quot;font-size: 14px&quot;&gt;PWM_OUT[0]&lt;/i&gt;" style="text;html=1;strokeColor=none;fillColor=none;align=left;verticalAlign=middle;whiteSpace=wrap;rounded=0;fontFamily=Helvetica;fontSize=14;fontColor=#FFFFFF;" vertex="1" parent="1">
                    <mxGeometry x="850" y="240" width="121" height="40" as="geometry"/>
                </mxCell>
                <mxCell id="58" style="edgeStyle=none;rounded=0;html=1;exitX=1;exitY=0.5;exitDx=0;exitDy=0;entryX=0;entryY=0.5;entryDx=0;entryDy=0;fontColor=#333333;strokeColor=#FFFFFF;strokeWidth=2;" edge="1" parent="1" source="38" target="54">
                    <mxGeometry relative="1" as="geometry">
                        <mxPoint x="780" y="270" as="sourcePoint"/>
                        <mxPoint x="860" y="270" as="targetPoint"/>
                    </mxGeometry>
                </mxCell>
                <mxCell id="60" style="edgeStyle=none;rounded=0;html=1;exitX=1;exitY=0.25;exitDx=0;exitDy=0;fontColor=#333333;strokeColor=#FFFFFF;strokeWidth=2;entryX=0;entryY=0.5;entryDx=0;entryDy=0;" edge="1" parent="1" source="53" target="38">
                    <mxGeometry relative="1" as="geometry">
                        <mxPoint x="580" y="270" as="sourcePoint"/>
                        <mxPoint x="440" y="300" as="targetPoint"/>
                    </mxGeometry>
                </mxCell>
                <mxCell id="61" value="Buffer" style="rounded=0;whiteSpace=wrap;html=1;fontFamily=Helvetica;fontSize=14;fontColor=#333333;strokeColor=none;strokeWidth=3;fillColor=#f5f5f5;" vertex="1" parent="1">
                    <mxGeometry x="450" y="340" width="120" height="40" as="geometry"/>
                </mxCell>
                <mxCell id="62" value="generator" style="rounded=0;whiteSpace=wrap;html=1;fontFamily=Helvetica;fontSize=14;fontColor=#333333;strokeColor=none;strokeWidth=3;fillColor=#f5f5f5;" vertex="1" parent="1">
                    <mxGeometry x="650" y="340" width="120" height="40" as="geometry"/>
                </mxCell>
                <mxCell id="63" style="edgeStyle=none;rounded=0;html=1;exitX=1;exitY=0.5;exitDx=0;exitDy=0;entryX=0;entryY=0.5;entryDx=0;entryDy=0;fontColor=#333333;strokeColor=#FFFFFF;strokeWidth=2;" edge="1" parent="1" source="62" target="64">
                    <mxGeometry relative="1" as="geometry">
                        <mxPoint x="810" y="360" as="sourcePoint"/>
                        <mxPoint x="890" y="360" as="targetPoint"/>
                    </mxGeometry>
                </mxCell>
                <mxCell id="64" value="&lt;i style=&quot;font-size: 14px&quot;&gt;PWM_OUT[248]&lt;/i&gt;" style="text;html=1;strokeColor=none;fillColor=none;align=left;verticalAlign=middle;whiteSpace=wrap;rounded=0;fontFamily=Helvetica;fontSize=14;fontColor=#FFFFFF;" vertex="1" parent="1">
                    <mxGeometry x="850" y="340" width="121" height="40" as="geometry"/>
                </mxCell>
                <mxCell id="65" style="edgeStyle=none;rounded=0;html=1;exitX=1;exitY=0.5;exitDx=0;exitDy=0;entryX=0;entryY=0.5;entryDx=0;entryDy=0;fontColor=#333333;strokeColor=#FFFFFF;strokeWidth=2;" edge="1" parent="1" source="61" target="62">
                    <mxGeometry relative="1" as="geometry">
                        <mxPoint x="780" y="370" as="sourcePoint"/>
                        <mxPoint x="860" y="370" as="targetPoint"/>
                    </mxGeometry>
                </mxCell>
                <mxCell id="66" style="edgeStyle=none;rounded=0;html=1;exitX=1;exitY=0.25;exitDx=0;exitDy=0;fontColor=#333333;strokeColor=#FFFFFF;strokeWidth=2;entryX=0;entryY=0.5;entryDx=0;entryDy=0;" edge="1" parent="1" target="61">
                    <mxGeometry relative="1" as="geometry">
                        <mxPoint x="370" y="360" as="sourcePoint"/>
                        <mxPoint x="440" y="400" as="targetPoint"/>
                    </mxGeometry>
                </mxCell>
                <mxCell id="67" value="&lt;span style=&quot;font-size: 14px&quot;&gt;R/F&lt;/span&gt;" style="text;html=1;strokeColor=none;fillColor=none;align=center;verticalAlign=middle;whiteSpace=wrap;rounded=0;fontFamily=Helvetica;fontSize=14;fontColor=#FFFFFF;strokeWidth=2;" vertex="1" parent="1">
                    <mxGeometry x="370" y="230" width="60" height="30" as="geometry"/>
                </mxCell>
                <mxCell id="68" value="&lt;span style=&quot;font-size: 14px&quot;&gt;R/F&lt;/span&gt;" style="text;html=1;strokeColor=none;fillColor=none;align=center;verticalAlign=middle;whiteSpace=wrap;rounded=0;fontFamily=Helvetica;fontSize=14;fontColor=#FFFFFF;strokeWidth=2;" vertex="1" parent="1">
                    <mxGeometry x="570" y="230" width="60" height="30" as="geometry"/>
                </mxCell>
                <mxCell id="69" value="︙× 249" style="text;html=1;strokeColor=none;fillColor=none;align=center;verticalAlign=middle;whiteSpace=wrap;rounded=0;fontFamily=Helvetica;fontSize=18;fontColor=#FFFFFF;strokeWidth=2;spacing=2;" vertex="1" parent="1">
                    <mxGeometry x="590" y="295" width="70" height="30" as="geometry"/>
                </mxCell>
                <mxCell id="72" value="&lt;i style=&quot;font-size: 14px;&quot;&gt;UPDATE&lt;/i&gt;" style="text;html=1;strokeColor=none;fillColor=none;align=right;verticalAlign=middle;whiteSpace=wrap;rounded=0;labelBackgroundColor=none;fontSize=14;fontColor=#FFFFFF;" vertex="1" parent="1">
                    <mxGeometry x="80" y="160" width="90" height="40" as="geometry"/>
                </mxCell>
                <mxCell id="73" value="&lt;i&gt;DIN_VALID&lt;/i&gt;" style="text;html=1;strokeColor=none;fillColor=none;align=right;verticalAlign=middle;whiteSpace=wrap;rounded=0;labelBackgroundColor=none;fontSize=14;fontColor=#FFFFFF;" vertex="1" parent="1">
                    <mxGeometry x="80" y="210" width="90" height="40" as="geometry"/>
                </mxCell>
                <mxCell id="74" value="&lt;i&gt;PULSE_WIDTH&lt;/i&gt;" style="text;html=1;strokeColor=none;fillColor=none;align=right;verticalAlign=middle;whiteSpace=wrap;rounded=0;labelBackgroundColor=none;fontSize=14;fontColor=#FFFFFF;" vertex="1" parent="1">
                    <mxGeometry x="80" y="240" width="90" height="40" as="geometry"/>
                </mxCell>
                <mxCell id="75" value="&lt;i&gt;PHASE&lt;/i&gt;" style="text;html=1;strokeColor=none;fillColor=none;align=right;verticalAlign=middle;whiteSpace=wrap;rounded=0;labelBackgroundColor=none;fontSize=14;fontColor=#FFFFFF;" vertex="1" parent="1">
                    <mxGeometry x="80" y="270" width="90" height="40" as="geometry"/>
                </mxCell>
                <mxCell id="76" style="edgeStyle=none;rounded=0;html=1;exitX=1;exitY=0.5;exitDx=0;exitDy=0;fontColor=#333333;strokeColor=#FFFFFF;strokeWidth=2;" edge="1" parent="1" source="73">
                    <mxGeometry relative="1" as="geometry">
                        <mxPoint x="190" y="230" as="sourcePoint"/>
                        <mxPoint x="250" y="230" as="targetPoint"/>
                    </mxGeometry>
                </mxCell>
                <mxCell id="77" style="edgeStyle=none;rounded=0;html=1;exitX=1;exitY=0.5;exitDx=0;exitDy=0;fontColor=#333333;strokeColor=#FFFFFF;strokeWidth=2;" edge="1" parent="1">
                    <mxGeometry relative="1" as="geometry">
                        <mxPoint x="170" y="260" as="sourcePoint"/>
                        <mxPoint x="250" y="260" as="targetPoint"/>
                    </mxGeometry>
                </mxCell>
                <mxCell id="78" style="edgeStyle=none;rounded=0;html=1;exitX=1;exitY=0.5;exitDx=0;exitDy=0;fontColor=#333333;strokeColor=#FFFFFF;strokeWidth=2;" edge="1" parent="1">
                    <mxGeometry relative="1" as="geometry">
                        <mxPoint x="170" y="289.66" as="sourcePoint"/>
                        <mxPoint x="250" y="289.66" as="targetPoint"/>
                    </mxGeometry>
                </mxCell>
                <mxCell id="80" value="" style="endArrow=none;html=1;rounded=1;labelBackgroundColor=default;fontFamily=Helvetica;fontSize=14;fontColor=#000000;strokeColor=#FFFFFF;strokeWidth=2;shape=connector;fillColor=#f5f5f5;" edge="1" parent="1">
                    <mxGeometry width="50" height="50" relative="1" as="geometry">
                        <mxPoint x="220.00000000000023" y="269.9999999999998" as="sourcePoint"/>
                        <mxPoint x="240.00000000000023" y="249.99999999999977" as="targetPoint"/>
                    </mxGeometry>
                </mxCell>
                <mxCell id="81" value="" style="endArrow=none;html=1;rounded=1;labelBackgroundColor=default;fontFamily=Helvetica;fontSize=14;fontColor=#000000;strokeColor=#FFFFFF;strokeWidth=2;shape=connector;fillColor=#f5f5f5;" edge="1" parent="1">
                    <mxGeometry width="50" height="50" relative="1" as="geometry">
                        <mxPoint x="220.00000000000023" y="294.9999999999998" as="sourcePoint"/>
                        <mxPoint x="240.00000000000023" y="274.9999999999998" as="targetPoint"/>
                    </mxGeometry>
                </mxCell>
                <mxCell id="82" value="" style="endArrow=none;html=1;rounded=1;labelBackgroundColor=default;fontFamily=Helvetica;fontSize=14;fontColor=#000000;strokeColor=#FFFFFF;strokeWidth=2;shape=connector;fillColor=#f5f5f5;" edge="1" parent="1">
                    <mxGeometry width="50" height="50" relative="1" as="geometry">
                        <mxPoint x="420.0000000000002" y="269.9999999999998" as="sourcePoint"/>
                        <mxPoint x="440.0000000000002" y="249.99999999999977" as="targetPoint"/>
                    </mxGeometry>
                </mxCell>
                <mxCell id="83" value="" style="endArrow=none;html=1;rounded=1;labelBackgroundColor=default;fontFamily=Helvetica;fontSize=14;fontColor=#000000;strokeColor=#FFFFFF;strokeWidth=2;shape=connector;fillColor=#f5f5f5;" edge="1" parent="1">
                    <mxGeometry width="50" height="50" relative="1" as="geometry">
                        <mxPoint x="420.0000000000002" y="369.9999999999998" as="sourcePoint"/>
                        <mxPoint x="440.0000000000002" y="349.9999999999998" as="targetPoint"/>
                    </mxGeometry>
                </mxCell>
                <mxCell id="84" value="" style="endArrow=none;html=1;rounded=1;labelBackgroundColor=default;fontFamily=Helvetica;fontSize=14;fontColor=#000000;strokeColor=#FFFFFF;strokeWidth=2;shape=connector;fillColor=#f5f5f5;" edge="1" parent="1">
                    <mxGeometry width="50" height="50" relative="1" as="geometry">
                        <mxPoint x="620.0000000000002" y="269.9999999999998" as="sourcePoint"/>
                        <mxPoint x="640.0000000000002" y="249.99999999999977" as="targetPoint"/>
                    </mxGeometry>
                </mxCell>
                <mxCell id="85" value="" style="endArrow=none;html=1;rounded=1;labelBackgroundColor=default;fontFamily=Helvetica;fontSize=14;fontColor=#000000;strokeColor=#FFFFFF;strokeWidth=2;shape=connector;fillColor=#f5f5f5;" edge="1" parent="1">
                    <mxGeometry width="50" height="50" relative="1" as="geometry">
                        <mxPoint x="620.0000000000002" y="369.9999999999998" as="sourcePoint"/>
                        <mxPoint x="640.0000000000002" y="349.9999999999998" as="targetPoint"/>
                    </mxGeometry>
                </mxCell>
                <mxCell id="87" style="edgeStyle=none;rounded=0;html=1;exitX=1;exitY=0.5;exitDx=0;exitDy=0;fontColor=#333333;strokeColor=#FFFFFF;strokeWidth=2;entryX=0.5;entryY=0;entryDx=0;entryDy=0;" edge="1" parent="1" source="72" target="38">
                    <mxGeometry relative="1" as="geometry">
                        <mxPoint x="180" y="240" as="sourcePoint"/>
                        <mxPoint x="510" y="180" as="targetPoint"/>
                        <Array as="points">
                            <mxPoint x="510" y="180"/>
                        </Array>
                    </mxGeometry>
                </mxCell>
                <mxCell id="89" style="edgeStyle=none;rounded=0;html=1;exitX=1;exitY=0.5;exitDx=0;exitDy=0;fontColor=#333333;strokeColor=#FFFFFF;strokeWidth=2;entryX=0.5;entryY=0;entryDx=0;entryDy=0;" edge="1" parent="1" source="Envj31jSL4E8aKWLNrxv-24" target="54">
                    <mxGeometry relative="1" as="geometry">
                        <mxPoint x="180" y="190" as="sourcePoint"/>
                        <mxPoint x="520" y="250" as="targetPoint"/>
                        <Array as="points">
                            <mxPoint x="710" y="150"/>
                        </Array>
                    </mxGeometry>
                </mxCell>
                <mxCell id="90" style="edgeStyle=none;rounded=0;html=1;exitX=0.5;exitY=1;exitDx=0;exitDy=0;entryX=0;entryY=0.5;entryDx=0;entryDy=0;fontColor=#333333;strokeColor=#FFFFFF;strokeWidth=2;" edge="1" parent="1" source="53" target="91">
                    <mxGeometry relative="1" as="geometry">
                        <mxPoint x="769" y="450" as="sourcePoint"/>
                        <mxPoint x="849" y="450" as="targetPoint"/>
                        <Array as="points">
                            <mxPoint x="310" y="450"/>
                        </Array>
                    </mxGeometry>
                </mxCell>
                <mxCell id="91" value="&lt;i&gt;DOUT_VALID&lt;/i&gt;" style="text;html=1;strokeColor=none;fillColor=none;align=left;verticalAlign=middle;whiteSpace=wrap;rounded=0;fontFamily=Helvetica;fontSize=14;fontColor=#FFFFFF;" vertex="1" parent="1">
                    <mxGeometry x="850" y="430" width="121" height="40" as="geometry"/>
                </mxCell>
                <mxCell id="94" value="&lt;i style=&quot;font-size: 14px;&quot;&gt;CLK&lt;/i&gt;" style="text;html=1;strokeColor=none;fillColor=none;align=right;verticalAlign=middle;whiteSpace=wrap;rounded=0;labelBackgroundColor=none;fontSize=14;fontColor=#FFFFFF;" vertex="1" parent="1">
                    <mxGeometry x="250" y="90" width="30" height="20" as="geometry"/>
                </mxCell>
                <mxCell id="95" style="edgeStyle=none;rounded=0;html=1;exitX=0.5;exitY=1;exitDx=0;exitDy=0;fontColor=#333333;strokeColor=#FFFFFF;strokeWidth=2;" edge="1" parent="1" source="94">
                    <mxGeometry relative="1" as="geometry">
                        <mxPoint x="180" y="240" as="sourcePoint"/>
                        <mxPoint x="265" y="130" as="targetPoint"/>
                    </mxGeometry>
                </mxCell>
            </root>
        </mxGraphModel>
    </diagram>
</mxfile>